:FULLY-SPECIFIED
:FORCE-ALL-JOINTS-BE-3DOF
:DEGREES
714
root -11.6995 13.9151 -38.3035 511.849 -61.6519 213.387
lfemur -65.7011 24.9555 -1.20904
ltibia 75.8864 0 0
lfoot -8.54977 -7.97598 0
ltoes -2.77614 0 0
rfemur 9.17354 -10.5585 11.5756
rtibia 40.2897 0 0
rfoot -25.2488 -26.5939 0
rtoes -28.6635 0 0
lowerback 12.29 1.43851 8.81816
upperback -1.72332 3.4881 5.82616
thorax -8.64461 1.2901 0.645487
lowerneck -4.02149 4.91535 0.815898
upperneck 3.39075 6.46882 0.953739
head 1.72589 3.25723 0.334875
lclavicle -2.61215e-15 -5.01787e-15 0
lhumerus 62.677 14.1419 106.717
lradius 11.7108 0 0
lwrist -76.3296 0 0
lhand -33.9367 42.4795 0
lfingers 7.12502 0 0
lthumb -7.11842 72.34 0
rclavicle -2.61215e-15 -5.01787e-15 0
rhumerus -75.3284 19.2812 -95.3803
rradius 114.751 0 0
rwrist -66.9915 0 0
rhand -8.89029 -41.0544 0
rfingers 7.12502 0 0
rthumb 17.0526 -70.9407 0
715
root -11.718 13.9096 -38.3053 511.849 -61.7512 213.576
lfemur -66.0161 24.9842 -1.30683
ltibia 76.1435 0 0
lfoot -8.71061 -7.96159 0
ltoes -2.88111 0 0
rfemur 9.3032 -10.5604 11.633
rtibia 40.0015 0 0
rfoot -25.1857 -26.6837 0
rtoes -29.248 0 0
lowerback 12.2268 1.43666 8.87247
upperback -1.73131 3.4857 5.83519
thorax -8.61478 1.28691 0.627392
lowerneck -3.92437 4.90705 0.903776
upperneck 3.33837 6.45654 0.886993
head 1.69679 3.25039 0.29516
lclavicle -2.02512e-15 -1.09332e-14 0
lhumerus 62.8865 14.1686 106.961
lradius 11.6491 0 0
lwrist -76.7008 0 0
lhand -33.9026 41.9464 0
lfingers 7.12502 0 0
lthumb -7.08551 71.8078 0
rclavicle -2.02512e-15 -1.09332e-14 0
rhumerus -75.335 19.2364 -95.4169
rradius 114.536 0 0
rwrist -66.4644 0 0
rhand -8.09128 -40.2427 0
rfingers 7.12502 0 0
rthumb 17.821 -69.4462 0
716
root -11.7239 13.9067 -38.3094 511.835 -61.8526 213.781
lfemur -66.3568 25.0428 -1.41729
ltibia 76.4509 0 0
lfoot -8.91098 -7.97232 0
ltoes -2.97129 0 0
rfemur 9.45715 -10.5691 11.6798
rtibia 39.696 0 0
rfoot -25.1162 -26.7729 0
rtoes -29.8382 0 0
lowerback 12.1613 1.43108 8.93185
upperback -1.74206 3.47917 5.84892
thorax -8.58691 1.2814 0.612367
lowerneck -3.8321 4.90014 0.991785
upperneck 3.29065 6.44626 0.816042
head 1.67009 3.24446 0.254367
lclavicle -1.66982e-15 -1.6301e-14 0
lhumerus 63.0622 14.1832 107.142
lradius 11.6064 0 0
lwrist -76.9908 0 0
lhand -33.8755 41.3652 0
lfingers 7.12502 0 0
lthumb -7.05933 71.2274 0
rclavicle -1.66982e-15 -1.6301e-14 0
rhumerus -75.3486 19.1993 -95.4541
rradius 114.327 0 0
rwrist -65.8869 0 0
rhand -7.21308 -39.3938 0
rfingers 7.12502 0 0
rthumb 18.666 -68.5208 0
717
root -11.7299 13.9038 -38.3136 511.817 -61.9433 213.959
lfemur -66.6411 25.0996 -1.51345
ltibia 76.6996 0 0
lfoot -9.07956 -7.99714 0
ltoes -3.01831 0 0
rfemur 9.59092 -10.5781 11.7248
rtibia 39.4368 0 0
rfoot -25.0516 -26.8586 0
rtoes -30.3292 0 0
lowerback 12.1034 1.42547 8.98444
upperback -1.7517 3.47246 5.85943
thorax -8.56228 1.27609 0.59744
lowerneck -3.75967 4.89243 1.06251
upperneck 3.25597 6.43507 0.758548
head 1.65013 3.23824 0.221482
lclavicle -1.4502e-15 -2.05366e-14 0
lhumerus 63.1896 14.1828 107.247
lradius 11.5802 0 0
lwrist -77.1953 0 0
lhand -33.846 40.8444 0
lfingers 7.12502 0 0
lthumb -7.03091 70.7074 0
rclavicle -1.4502e-15 -2.05366e-14 0
rhumerus -75.3587 19.1674 -95.4837
rradius 114.156 0 0
rwrist -65.4147 0 0
rhand -6.49666 -38.7038 0
rfingers 7.12502 0 0
rthumb 19.3554 -67.7698 0
